<svg t="1651676831138" class="icon" viewBox="0 0 1024 1024" version="1.1" xmlns="http://www.w3.org/2000/svg" p-id="1564" width="32" height="32">
	<path d="M583.603 830.060c0 72.198 58.733 130.932 130.923 130.932h116.343c72.189 0 130.923-58.733 130.923-130.942v-116.361c0-72.18-58.733-130.897-130.923-130.897h-28.512c-6.883-32.441-25.004-59.81-50.012-78.456-13.75-13.239-44.473-26.008-78.177-26.008-0.012 0-0.023 0-0.036 0h-108.070c23.555-10.492 42.832-26.989 56.415-47.574l65.733-61.965c23.684-23.566 38.341-56.185 38.341-92.228 0-0.125 0-0.25-0.001-0.375 0-34.955-13.617-67.831-38.34-92.545l-82.269-82.286c-23.564-23.689-56.184-38.349-92.229-38.349-0.128 0-0.256 0-0.383 0.001-34.954 0-67.84 13.617-92.554 38.349l-82.251 82.278c-23.693 23.556-38.358 56.171-38.358 92.212 0 0.125 0 0.248 0.001 0.372 0 34.945 13.617 67.831 38.349 92.564l82.26 82.26c17.347 17.393 39.588 29.898 64.482 35.271l-133.296-8.001c-32.364 0-63.45 11.952-87.525 33.633-23.253 20.949-38.914 49.929-42.594 82.539l-26.616-11.7c-72.207 0.008-130.95 58.733-130.95 130.905v116.37c0 72.198 58.743 130.932 130.942 130.932h116.325c72.207 0 130.95-58.733 130.95-130.942v-116.361c0-72.18-58.743-130.897-130.95-130.897h-20.303c10.405-23.582 33.581-39.744 60.532-39.744 0.063 0 0.127 0 0.19 0h322.172c0.051 0 0.112 0 0.173 0 26.951 0 50.127 16.163 60.367 39.323l-20.146 0.422c-72.189 0-130.923 58.717-130.923 130.897v116.37zM897.074 713.69v116.37c0 36.503-29.7 66.214-66.203 66.214h-116.343c-36.503 0-66.195-29.7-66.195-66.222v-116.361c0-36.486 29.7-66.168 66.195-66.168h116.343c36.503 0 66.203 29.682 66.203 66.168zM364.886 276.2c0-17.676 6.894-34.29 19.403-46.8l82.26-82.286c11.909-11.975 28.397-19.386 46.614-19.386 0.065 0 0.13 0 0.195 0 17.675 0 34.307 6.885 46.807 19.395l82.278 82.287c11.975 11.907 19.386 28.394 19.386 46.611 0 0.067 0 0.133 0 0.2 0 0.040 0 0.101 0 0.162 0 18.231-7.415 34.728-19.392 46.643l-82.263 82.263c-25.83 25.811-67.824 25.811-93.636 0l-82.26-82.26c-11.98-11.918-19.395-28.416-19.395-46.646 0-0.063 0-0.127 0-0.19zM377.765 713.69v116.37c0 36.503-29.7 66.214-66.213 66.214h-116.333c-36.513 0-66.213-29.7-66.213-66.222v-116.361c0-36.486 29.7-66.168 66.213-66.168h116.325c36.514 0 66.222 29.682 66.222 66.168z" fill="#707070" p-id="1565">
	</path>
</svg>
