<svg t="1651480151117" class="icon" viewBox="0 0 1024 1024" version="1.1" xmlns="http://www.w3.org/2000/svg" p-id="1133" width="32" height="32">
	<path d="M774.50000029 493.25000029l-20.62500029 54.37500029L699.49999971 547.62499971l45 33.75L723.87500029 643.24999971l50.625-37.5000003 50.625 37.5000003-20.62500029-61.875 45-33.75-54.37500029 0L774.50000029 493.25000029zM536.37499971 455.75l50.625-37.50000029 50.625 37.50000029-20.6250003-61.875 45.00000001-33.75-54.3750003 0L586.99999971 305.74999971l-20.6250003 54.37500029L512 360.125l45 33.75L536.37499971 455.75zM924.49999971 174.5l-74.99999971 0-28.125-74.99999971L793.25 174.5l-74.99999971 0 61.875 46.87499971L752.00000029 305.74999971l71.25000029-52.49999971 71.2500003 52.49999971-28.125-84.375L924.49999971 174.5zM380.75000029 360.125c0-99.37500029 35.62499971-189.37500029 93.7500003-260.62499971C264.5 118.25 99.50000029 296.37500029 99.50000029 512c0 228.75000029 183.75000029 412.49999971 412.49999971 412.49999971 129.375 0 262.50000029-60.00000029 337.5-151.875-13.12499971 1.87499971-43.12500029 1.87499971-56.25 1.87499971C564.49999971 774.50000029 380.75000029 588.87500029 380.75000029 360.125zM512 887.00000029C305.74999971 887.00000029 136.99999971 718.25000029 136.99999971 512c0-164.99999971 105.00000029-307.50000029 256.87500029-356.24999971-31.87500029 63.74999971-50.625 135-50.625 206.25000029 0 236.25 180 429.37499971 410.625 450C686.375 858.87500029 598.24999971 887.00000029 512 887.00000029z" fill="#707070" p-id="1134">
	</path>
</svg>
