<svg t="1651499063627" class="icon" viewBox="0 0 1024 1024" version="1.1" xmlns="http://www.w3.org/2000/svg" p-id="979" width="32" height="32">
	<path d="M217.45839104 790.13905294H806.54277405v65.48215239H217.45839104zM381.08808989 888.31687339H642.91307406v65.48448028H381.08808989zM1002.89957774 561.08891022v-65.48448028h-116.07765675c-9.96867413-58.41955157-33.49204423-113.2623963-67.36830577-160.84936818l94.66398492-94.59878457-46.27714275-46.30857842-90.37938688 90.34911517c-62.12898816-63.0546011-144.13594624-105.46512782-232.72581576-114.0308298V70.19748238h-65.46934442v99.93590215c-85.84097451 8.21292032-163.13371079 48.22500466-221.46011932 109.01272804l-85.28095005-85.29957888L126.24653426 240.15511325l90.36425102 90.34795121c-32.43835961 48.03522446-54.68100835 104.21817003-63.75783424 165.10020153H21.09925831v65.48447915h127.07207168c0.54372466 45.09305742 9.41097757 88.90888533 25.9811931 130.90376021H53.82752711v65.41927993h916.34611086v-65.41927993h-103.99462627c16.55391346-41.99370979 25.44096029-85.80953771 26.01379157-130.90376021h110.70677447v0.00116508zM245.26170112 691.9926693c-21.12492771-42.85877931-31.89463495-88.39776142-31.89463495-135.47127922 0-174.91286016 136.75083776-322.69304263 298.63991978-322.69304377 167.78622521 0 314.98775438 150.78405803 314.98775325 322.69304377 0 47.07468402-10.80114403 92.61366499-31.89463495 135.47127922H245.26170112z" fill="#707070" p-id="980">
	</path>
</svg>
